<mxfile host="app.diagrams.net" agent="Mozilla/5.0 (Windows NT 10.0; Win64; x64) AppleWebKit/537.36 (KHTML, like Gecko) Chrome/130.0.0.0 Safari/537.36" version="24.8.3">
  <diagram id="C5RBs43oDa-KdzZeNtuy" name="Page-1">
    <mxGraphModel dx="2049" dy="1086" grid="1" gridSize="10" guides="1" tooltips="1" connect="1" arrows="1" fold="1" page="1" pageScale="1" pageWidth="827" pageHeight="1169" math="0" shadow="0">
      <root>
        <mxCell id="WIyWlLk6GJQsqaUBKTNV-0" />
        <mxCell id="WIyWlLk6GJQsqaUBKTNV-1" parent="WIyWlLk6GJQsqaUBKTNV-0" />
        <mxCell id="S9X2CrvjlCp7RjqO-zdM-14" style="edgeStyle=orthogonalEdgeStyle;rounded=0;orthogonalLoop=1;jettySize=auto;html=1;entryX=0.5;entryY=0;entryDx=0;entryDy=0;" edge="1" parent="WIyWlLk6GJQsqaUBKTNV-1" source="S9X2CrvjlCp7RjqO-zdM-1" target="S9X2CrvjlCp7RjqO-zdM-6">
          <mxGeometry relative="1" as="geometry" />
        </mxCell>
        <mxCell id="S9X2CrvjlCp7RjqO-zdM-1" value="Start" style="rounded=1;whiteSpace=wrap;html=1;" vertex="1" parent="WIyWlLk6GJQsqaUBKTNV-1">
          <mxGeometry x="340" y="110" width="120" height="60" as="geometry" />
        </mxCell>
        <mxCell id="S9X2CrvjlCp7RjqO-zdM-15" style="edgeStyle=orthogonalEdgeStyle;rounded=0;orthogonalLoop=1;jettySize=auto;html=1;entryX=0.5;entryY=0;entryDx=0;entryDy=0;" edge="1" parent="WIyWlLk6GJQsqaUBKTNV-1" source="S9X2CrvjlCp7RjqO-zdM-6" target="S9X2CrvjlCp7RjqO-zdM-7">
          <mxGeometry relative="1" as="geometry" />
        </mxCell>
        <mxCell id="S9X2CrvjlCp7RjqO-zdM-6" value="txt" style="rounded=0;whiteSpace=wrap;html=1;" vertex="1" parent="WIyWlLk6GJQsqaUBKTNV-1">
          <mxGeometry x="340" y="200" width="120" height="60" as="geometry" />
        </mxCell>
        <mxCell id="S9X2CrvjlCp7RjqO-zdM-16" style="edgeStyle=orthogonalEdgeStyle;rounded=0;orthogonalLoop=1;jettySize=auto;html=1;entryX=0.5;entryY=0;entryDx=0;entryDy=0;" edge="1" parent="WIyWlLk6GJQsqaUBKTNV-1" source="S9X2CrvjlCp7RjqO-zdM-7" target="S9X2CrvjlCp7RjqO-zdM-8">
          <mxGeometry relative="1" as="geometry" />
        </mxCell>
        <mxCell id="S9X2CrvjlCp7RjqO-zdM-7" value="latin=[], kiril=[]" style="rounded=0;whiteSpace=wrap;html=1;" vertex="1" parent="WIyWlLk6GJQsqaUBKTNV-1">
          <mxGeometry x="340" y="290" width="120" height="60" as="geometry" />
        </mxCell>
        <mxCell id="S9X2CrvjlCp7RjqO-zdM-17" style="edgeStyle=orthogonalEdgeStyle;rounded=0;orthogonalLoop=1;jettySize=auto;html=1;entryX=0.5;entryY=0;entryDx=0;entryDy=0;" edge="1" parent="WIyWlLk6GJQsqaUBKTNV-1" source="S9X2CrvjlCp7RjqO-zdM-8" target="S9X2CrvjlCp7RjqO-zdM-11">
          <mxGeometry relative="1" as="geometry" />
        </mxCell>
        <mxCell id="S9X2CrvjlCp7RjqO-zdM-8" value="only_latin=false&lt;div&gt;only_kiril=false&lt;/div&gt;" style="rounded=0;whiteSpace=wrap;html=1;" vertex="1" parent="WIyWlLk6GJQsqaUBKTNV-1">
          <mxGeometry x="340" y="380" width="120" height="60" as="geometry" />
        </mxCell>
        <mxCell id="S9X2CrvjlCp7RjqO-zdM-13" value="Yes" style="edgeStyle=orthogonalEdgeStyle;rounded=0;orthogonalLoop=1;jettySize=auto;html=1;entryX=0.5;entryY=0;entryDx=0;entryDy=0;" edge="1" parent="WIyWlLk6GJQsqaUBKTNV-1" source="S9X2CrvjlCp7RjqO-zdM-11" target="S9X2CrvjlCp7RjqO-zdM-12">
          <mxGeometry relative="1" as="geometry" />
        </mxCell>
        <mxCell id="S9X2CrvjlCp7RjqO-zdM-18" value="No" style="edgeStyle=orthogonalEdgeStyle;rounded=0;orthogonalLoop=1;jettySize=auto;html=1;" edge="1" parent="WIyWlLk6GJQsqaUBKTNV-1" source="S9X2CrvjlCp7RjqO-zdM-11" target="S9X2CrvjlCp7RjqO-zdM-19">
          <mxGeometry relative="1" as="geometry">
            <mxPoint x="280" y="495" as="targetPoint" />
          </mxGeometry>
        </mxCell>
        <mxCell id="S9X2CrvjlCp7RjqO-zdM-30" style="edgeStyle=orthogonalEdgeStyle;rounded=0;orthogonalLoop=1;jettySize=auto;html=1;exitX=1;exitY=1;exitDx=0;exitDy=0;" edge="1" parent="WIyWlLk6GJQsqaUBKTNV-1" source="S9X2CrvjlCp7RjqO-zdM-11" target="S9X2CrvjlCp7RjqO-zdM-31">
          <mxGeometry relative="1" as="geometry">
            <mxPoint x="430" y="700" as="targetPoint" />
          </mxGeometry>
        </mxCell>
        <mxCell id="S9X2CrvjlCp7RjqO-zdM-11" value="if i in latin" style="rhombus;whiteSpace=wrap;html=1;" vertex="1" parent="WIyWlLk6GJQsqaUBKTNV-1">
          <mxGeometry x="340" y="460" width="120" height="70" as="geometry" />
        </mxCell>
        <mxCell id="S9X2CrvjlCp7RjqO-zdM-25" style="edgeStyle=orthogonalEdgeStyle;rounded=0;orthogonalLoop=1;jettySize=auto;html=1;entryX=0.5;entryY=1;entryDx=0;entryDy=0;" edge="1" parent="WIyWlLk6GJQsqaUBKTNV-1" source="S9X2CrvjlCp7RjqO-zdM-12" target="S9X2CrvjlCp7RjqO-zdM-11">
          <mxGeometry relative="1" as="geometry" />
        </mxCell>
        <mxCell id="S9X2CrvjlCp7RjqO-zdM-12" value="latin=true" style="whiteSpace=wrap;html=1;" vertex="1" parent="WIyWlLk6GJQsqaUBKTNV-1">
          <mxGeometry x="470" y="555" width="120" height="60" as="geometry" />
        </mxCell>
        <mxCell id="S9X2CrvjlCp7RjqO-zdM-23" value="Yes" style="edgeStyle=orthogonalEdgeStyle;rounded=0;orthogonalLoop=1;jettySize=auto;html=1;" edge="1" parent="WIyWlLk6GJQsqaUBKTNV-1" source="S9X2CrvjlCp7RjqO-zdM-19" target="S9X2CrvjlCp7RjqO-zdM-22">
          <mxGeometry relative="1" as="geometry" />
        </mxCell>
        <mxCell id="S9X2CrvjlCp7RjqO-zdM-24" value="No" style="edgeStyle=orthogonalEdgeStyle;rounded=0;orthogonalLoop=1;jettySize=auto;html=1;entryX=0.5;entryY=1;entryDx=0;entryDy=0;" edge="1" parent="WIyWlLk6GJQsqaUBKTNV-1" source="S9X2CrvjlCp7RjqO-zdM-19" target="S9X2CrvjlCp7RjqO-zdM-11">
          <mxGeometry x="-0.7037" relative="1" as="geometry">
            <mxPoint as="offset" />
          </mxGeometry>
        </mxCell>
        <mxCell id="S9X2CrvjlCp7RjqO-zdM-19" value="if i in kiril" style="rhombus;whiteSpace=wrap;html=1;" vertex="1" parent="WIyWlLk6GJQsqaUBKTNV-1">
          <mxGeometry x="190" y="545" width="130" height="80" as="geometry" />
        </mxCell>
        <mxCell id="S9X2CrvjlCp7RjqO-zdM-27" style="edgeStyle=orthogonalEdgeStyle;rounded=0;orthogonalLoop=1;jettySize=auto;html=1;" edge="1" parent="WIyWlLk6GJQsqaUBKTNV-1" source="S9X2CrvjlCp7RjqO-zdM-22">
          <mxGeometry relative="1" as="geometry">
            <mxPoint x="400" y="530" as="targetPoint" />
            <Array as="points">
              <mxPoint x="80" y="650" />
              <mxPoint x="401" y="650" />
            </Array>
          </mxGeometry>
        </mxCell>
        <mxCell id="S9X2CrvjlCp7RjqO-zdM-22" value="kiril=true" style="whiteSpace=wrap;html=1;" vertex="1" parent="WIyWlLk6GJQsqaUBKTNV-1">
          <mxGeometry x="20" y="555" width="120" height="60" as="geometry" />
        </mxCell>
        <mxCell id="S9X2CrvjlCp7RjqO-zdM-26" value="len(txt)" style="text;html=1;align=center;verticalAlign=middle;whiteSpace=wrap;rounded=0;" vertex="1" parent="WIyWlLk6GJQsqaUBKTNV-1">
          <mxGeometry x="421" y="564" width="60" height="30" as="geometry" />
        </mxCell>
        <mxCell id="S9X2CrvjlCp7RjqO-zdM-28" value="len(txt)" style="text;html=1;align=center;verticalAlign=middle;whiteSpace=wrap;rounded=0;" vertex="1" parent="WIyWlLk6GJQsqaUBKTNV-1">
          <mxGeometry x="210" y="650" width="60" height="30" as="geometry" />
        </mxCell>
        <mxCell id="S9X2CrvjlCp7RjqO-zdM-29" value="len(txt)" style="text;html=1;align=center;verticalAlign=middle;whiteSpace=wrap;rounded=0;" vertex="1" parent="WIyWlLk6GJQsqaUBKTNV-1">
          <mxGeometry x="340" y="555" width="60" height="30" as="geometry" />
        </mxCell>
        <mxCell id="S9X2CrvjlCp7RjqO-zdM-32" value="Yes" style="edgeStyle=orthogonalEdgeStyle;rounded=0;orthogonalLoop=1;jettySize=auto;html=1;" edge="1" parent="WIyWlLk6GJQsqaUBKTNV-1" source="S9X2CrvjlCp7RjqO-zdM-31" target="S9X2CrvjlCp7RjqO-zdM-33">
          <mxGeometry relative="1" as="geometry">
            <mxPoint x="590" y="720" as="targetPoint" />
          </mxGeometry>
        </mxCell>
        <mxCell id="S9X2CrvjlCp7RjqO-zdM-35" value="No" style="edgeStyle=orthogonalEdgeStyle;rounded=0;orthogonalLoop=1;jettySize=auto;html=1;" edge="1" parent="WIyWlLk6GJQsqaUBKTNV-1" source="S9X2CrvjlCp7RjqO-zdM-31" target="S9X2CrvjlCp7RjqO-zdM-36">
          <mxGeometry relative="1" as="geometry">
            <mxPoint x="210" y="720" as="targetPoint" />
          </mxGeometry>
        </mxCell>
        <mxCell id="S9X2CrvjlCp7RjqO-zdM-31" value="if latin and kiril" style="rhombus;whiteSpace=wrap;html=1;" vertex="1" parent="WIyWlLk6GJQsqaUBKTNV-1">
          <mxGeometry x="334" y="680" width="160" height="80" as="geometry" />
        </mxCell>
        <mxCell id="S9X2CrvjlCp7RjqO-zdM-41" value="" style="edgeStyle=orthogonalEdgeStyle;rounded=0;orthogonalLoop=1;jettySize=auto;html=1;" edge="1" parent="WIyWlLk6GJQsqaUBKTNV-1" source="S9X2CrvjlCp7RjqO-zdM-33" target="S9X2CrvjlCp7RjqO-zdM-40">
          <mxGeometry relative="1" as="geometry" />
        </mxCell>
        <mxCell id="S9X2CrvjlCp7RjqO-zdM-33" value="Тут і кирилиця і латинь" style="shape=parallelogram;perimeter=parallelogramPerimeter;whiteSpace=wrap;html=1;fixedSize=1;" vertex="1" parent="WIyWlLk6GJQsqaUBKTNV-1">
          <mxGeometry x="540" y="690" width="120" height="60" as="geometry" />
        </mxCell>
        <mxCell id="S9X2CrvjlCp7RjqO-zdM-37" value="No" style="edgeStyle=orthogonalEdgeStyle;rounded=0;orthogonalLoop=1;jettySize=auto;html=1;exitX=0;exitY=0.5;exitDx=0;exitDy=0;" edge="1" parent="WIyWlLk6GJQsqaUBKTNV-1" source="S9X2CrvjlCp7RjqO-zdM-36" target="S9X2CrvjlCp7RjqO-zdM-46">
          <mxGeometry relative="1" as="geometry">
            <mxPoint x="75" y="810" as="targetPoint" />
          </mxGeometry>
        </mxCell>
        <mxCell id="S9X2CrvjlCp7RjqO-zdM-43" style="edgeStyle=orthogonalEdgeStyle;rounded=0;orthogonalLoop=1;jettySize=auto;html=1;entryX=0.558;entryY=-0.05;entryDx=0;entryDy=0;entryPerimeter=0;" edge="1" parent="WIyWlLk6GJQsqaUBKTNV-1" source="S9X2CrvjlCp7RjqO-zdM-36" target="S9X2CrvjlCp7RjqO-zdM-44">
          <mxGeometry relative="1" as="geometry">
            <mxPoint x="300" y="800" as="targetPoint" />
            <Array as="points">
              <mxPoint x="220" y="770" />
              <mxPoint x="327" y="770" />
            </Array>
          </mxGeometry>
        </mxCell>
        <mxCell id="S9X2CrvjlCp7RjqO-zdM-36" value="elif only_latin and not only_kiril" style="rhombus;whiteSpace=wrap;html=1;" vertex="1" parent="WIyWlLk6GJQsqaUBKTNV-1">
          <mxGeometry x="140" y="680" width="160" height="80" as="geometry" />
        </mxCell>
        <mxCell id="S9X2CrvjlCp7RjqO-zdM-40" value="Кінець" style="rounded=1;whiteSpace=wrap;html=1;" vertex="1" parent="WIyWlLk6GJQsqaUBKTNV-1">
          <mxGeometry x="690" y="880" width="120" height="60" as="geometry" />
        </mxCell>
        <mxCell id="S9X2CrvjlCp7RjqO-zdM-45" style="edgeStyle=orthogonalEdgeStyle;rounded=0;orthogonalLoop=1;jettySize=auto;html=1;entryX=0;entryY=0.5;entryDx=0;entryDy=0;" edge="1" parent="WIyWlLk6GJQsqaUBKTNV-1" source="S9X2CrvjlCp7RjqO-zdM-44" target="S9X2CrvjlCp7RjqO-zdM-40">
          <mxGeometry relative="1" as="geometry" />
        </mxCell>
        <mxCell id="S9X2CrvjlCp7RjqO-zdM-44" value="Тут лише латинь" style="shape=parallelogram;perimeter=parallelogramPerimeter;whiteSpace=wrap;html=1;fixedSize=1;" vertex="1" parent="WIyWlLk6GJQsqaUBKTNV-1">
          <mxGeometry x="260" y="790" width="120" height="60" as="geometry" />
        </mxCell>
        <mxCell id="S9X2CrvjlCp7RjqO-zdM-47" style="edgeStyle=orthogonalEdgeStyle;rounded=0;orthogonalLoop=1;jettySize=auto;html=1;entryX=0.5;entryY=1;entryDx=0;entryDy=0;" edge="1" parent="WIyWlLk6GJQsqaUBKTNV-1" source="S9X2CrvjlCp7RjqO-zdM-46" target="S9X2CrvjlCp7RjqO-zdM-40">
          <mxGeometry relative="1" as="geometry">
            <Array as="points">
              <mxPoint x="93" y="960" />
              <mxPoint x="750" y="960" />
            </Array>
          </mxGeometry>
        </mxCell>
        <mxCell id="S9X2CrvjlCp7RjqO-zdM-46" value="Тут лише кирилиця" style="shape=parallelogram;perimeter=parallelogramPerimeter;whiteSpace=wrap;html=1;fixedSize=1;" vertex="1" parent="WIyWlLk6GJQsqaUBKTNV-1">
          <mxGeometry x="15" y="810" width="155" height="60" as="geometry" />
        </mxCell>
      </root>
    </mxGraphModel>
  </diagram>
</mxfile>
